<svg width="32" height="32" viewBox="0 0 32 32" fill="none" xmlns="http://www.w3.org/2000/svg">
<path d="M15.9998 2.66675C8.63584 2.66675 2.6665 8.63608 2.6665 16.0001C2.6665 23.3641 8.63584 29.3334 15.9998 29.3334C23.3638 29.3334 29.3332 23.3641 29.3332 16.0001C29.3332 8.63608 23.3638 2.66675 15.9998 2.66675Z" stroke="#664CAD" stroke-width="2.5" stroke-linecap="round" stroke-linejoin="round"/>
<path d="M10.6665 28.224V18.6667L15.9998 9.33337L21.3332 18.6667V28.224" stroke="#664CAD" stroke-width="2.5" stroke-linecap="round" stroke-linejoin="round"/>
<path d="M10.6665 18.6667C10.6665 18.6667 12.1692 20.0001 13.3332 20.0001C14.4972 20.0001 15.9998 18.6667 15.9998 18.6667C15.9998 18.6667 17.5025 20.0001 18.6665 20.0001C19.8305 20.0001 21.3332 18.6667 21.3332 18.6667" stroke="#664CAD" stroke-width="2.5" stroke-linecap="round" stroke-linejoin="round"/>
</svg>
